<svg xmlns="http://www.w3.org/2000/svg" viewBox="0 0 512 416.1"><g id="Layer_2" data-name="Layer 2"><g id="アイコン"><path d="M161,416.1C354.24,416.1,459.9,256,459.9,117.23q0-6.83-.3-13.58A213.88,213.88,0,0,0,512,49.26,209.71,209.71,0,0,1,451.68,65.8,105.45,105.45,0,0,0,497.87,7.69a210.67,210.67,0,0,1-66.7,25.5,105.15,105.15,0,0,0-179,95.8A298.2,298.2,0,0,1,35.64,19.24,105.12,105.12,0,0,0,68.15,159.47a104.32,104.32,0,0,1-47.57-13.14c0,.44,0,.88,0,1.34a105.09,105.09,0,0,0,84.28,103,105.07,105.07,0,0,1-47.44,1.8,105.17,105.17,0,0,0,98.13,73,210.81,210.81,0,0,1-130.46,45A213.76,213.76,0,0,1,0,368.92,297.41,297.41,0,0,0,161,416.1"/></g></g></svg>