<svg xmlns="http://www.w3.org/2000/svg" viewBox="0 0 480 480"><g id="Layer_2" data-name="Layer 2"><g id="アイコン"><path d="M240,43.24c64.08,0,71.67.25,97,1.4,23.4,1.07,36.11,5,44.57,8.27a74.3,74.3,0,0,1,27.59,18,74.3,74.3,0,0,1,17.95,27.59c3.29,8.46,7.2,21.17,8.27,44.57,1.15,25.31,1.4,32.9,1.4,97s-.25,71.67-1.4,97c-1.07,23.4-5,36.11-8.27,44.57a79.47,79.47,0,0,1-45.54,45.54c-8.46,3.29-21.17,7.2-44.57,8.27-25.3,1.15-32.89,1.4-97,1.4s-71.68-.25-97-1.4c-23.4-1.07-36.11-5-44.57-8.27a74.3,74.3,0,0,1-27.59-17.95,74.3,74.3,0,0,1-18-27.59c-3.29-8.46-7.2-21.17-8.27-44.57-1.15-25.31-1.4-32.9-1.4-97s.25-71.67,1.4-97c1.07-23.4,5-36.11,8.27-44.57a74.3,74.3,0,0,1,18-27.59,74.3,74.3,0,0,1,27.59-18c8.46-3.29,21.17-7.2,44.57-8.27,25.31-1.15,32.9-1.4,97-1.4M240,0c-65.18,0-73.35.28-98.95,1.44s-43,5.23-58.26,11.16A117.63,117.63,0,0,0,40.28,40.28,117.63,117.63,0,0,0,12.6,82.79c-5.93,15.27-10,32.71-11.16,58.26S0,174.82,0,240,.28,313.35,1.44,339s5.23,43,11.16,58.26a117.63,117.63,0,0,0,27.68,42.51A117.63,117.63,0,0,0,82.79,467.4c15.27,5.93,32.71,10,58.26,11.16S174.82,480,240,480s73.35-.28,98.95-1.44,43-5.23,58.26-11.16a122.7,122.7,0,0,0,70.19-70.19c5.93-15.27,10-32.71,11.16-58.26S480,305.18,480,240s-.28-73.35-1.44-98.95-5.23-43-11.16-58.26a117.63,117.63,0,0,0-27.68-42.51A117.63,117.63,0,0,0,397.21,12.6C381.94,6.67,364.5,2.61,339,1.44S305.18,0,240,0Z"/><path d="M240,116.76A123.24,123.24,0,1,0,363.24,240,123.23,123.23,0,0,0,240,116.76ZM240,320a80,80,0,1,1,80-80A80,80,0,0,1,240,320Z"/><circle cx="368.11" cy="111.89" r="28.8"/></g></g></svg>