<svg xmlns="http://www.w3.org/2000/svg" width="480" height="480" viewBox="0 0 480 480"><defs><style>.cls-1{fill:#fff;}</style></defs><g id="Layer_2" data-name="Layer 2"><g id="アイコン"><path class="cls-1" d="M240,43.2432c64.0829,0,71.6732.2444,96.98,1.3991,23.4,1.0677,36.1078,4.9772,44.5648,8.2639a74.3592,74.3592,0,0,1,27.5954,17.9529,74.3585,74.3585,0,0,1,17.9532,27.5957c3.2866,8.457,7.1962,21.1652,8.2639,44.5644,1.1547,25.3076,1.3991,32.898,1.3991,96.9808s-.2444,71.6732-1.3991,96.98c-1.0677,23.4-4.9773,36.1078-8.2639,44.5648a79.4795,79.4795,0,0,1-45.5486,45.5486c-8.457,3.2866-21.1652,7.1962-44.5648,8.2639-25.3035,1.1547-32.8932,1.3991-96.98,1.3991s-71.6769-.2444-96.98-1.3991c-23.4-1.0677-36.1078-4.9773-44.5648-8.2639a74.358,74.358,0,0,1-27.5954-17.9529,74.3594,74.3594,0,0,1-17.9532-27.5957c-3.2867-8.457-7.1962-21.1652-8.2639-44.5645C43.4876,311.6732,43.2432,304.0829,43.2432,240s.2444-71.6732,1.3991-96.98c1.0677-23.4,4.9772-36.1078,8.2639-44.5648A74.3592,74.3592,0,0,1,70.8591,70.8594,74.36,74.36,0,0,1,98.4548,52.9062c8.457-3.2867,21.1652-7.1962,44.5644-8.2639,25.3076-1.1547,32.898-1.3991,96.9808-1.3991M240,0c-65.18,0-73.3532.2761-98.9516,1.444C115.5027,2.61,98.057,6.6667,82.7906,12.6a117.6449,117.6449,0,0,0-42.509,27.6819A117.6449,117.6449,0,0,0,12.6,82.7906C6.6667,98.057,2.61,115.5027,1.444,141.0484.2761,166.6468,0,174.82,0,240s.2761,73.3531,1.444,98.9516C2.61,364.4973,6.6667,381.943,12.6,397.2094a117.6466,117.6466,0,0,0,27.6819,42.509A117.6423,117.6423,0,0,0,82.7906,467.4c15.2664,5.933,32.7121,9.99,58.2578,11.1557C166.6468,479.7241,174.82,480,240,480s73.3531-.2759,98.9516-1.444c25.5457-1.1656,42.9914-5.2227,58.2578-11.1557A122.7212,122.7212,0,0,0,467.4,397.2094c5.933-15.2664,9.99-32.7121,11.1557-58.2578C479.7239,313.3531,480,305.18,480,240s-.2761-73.3532-1.444-98.9516C477.39,115.5027,473.3333,98.057,467.4,82.7906a117.6423,117.6423,0,0,0-27.6819-42.509A117.6449,117.6449,0,0,0,397.2094,12.6C381.943,6.6667,364.4973,2.61,338.9516,1.444,313.3531.2761,305.18,0,240,0Z"/><path class="cls-1" d="M240,116.7568A123.2432,123.2432,0,1,0,363.2432,240,123.2431,123.2431,0,0,0,240,116.7568ZM240,320a80,80,0,1,1,80-80A80,80,0,0,1,240,320Z"/><circle class="cls-1" cx="368.1126" cy="111.8874" r="28.8"/></g></g></svg>