<svg xmlns="http://www.w3.org/2000/svg" width="512" height="416.1" viewBox="0 0 512 416.1"><defs><style>.cls-1{fill:#fff;}</style></defs><g id="Layer_2" data-name="Layer 2"><g id="アイコン"><path class="cls-1" d="M161.0205,416.1c193.2153,0,298.8763-160.07,298.8763-298.8706,0-4.5487-.0923-9.0763-.3-13.58A213.727,213.727,0,0,0,512,49.2615a209.6861,209.6861,0,0,1-60.3249,16.5358A105.4054,105.4054,0,0,0,497.8657,7.6909a210.5078,210.5078,0,0,1-66.6993,25.4967,105.1364,105.1364,0,0,0-179.0117,95.798A298.2269,298.2269,0,0,1,35.636,19.2384,105.1221,105.1221,0,0,0,68.1542,159.47a104.273,104.273,0,0,1-47.5763-13.14c-.0231.4383-.0231.8782-.0231,1.339A105.0886,105.0886,0,0,0,104.83,250.65a104.8795,104.8795,0,0,1-47.4378,1.8,105.1622,105.1622,0,0,0,98.132,72.958A210.7886,210.7886,0,0,1,25.0583,370.3725,213.8633,213.8633,0,0,1,0,368.9178,297.3911,297.3911,0,0,0,161.0205,416.1"/></g></g></svg>