<svg xmlns="http://www.w3.org/2000/svg" viewBox="0 0 4571.5 512"><defs><style>.cls-1{opacity:0.01;}.cls-2{fill:#fff;}.cls-3{fill:#1e1e1e;}.cls-4{fill:#e50012;}</style></defs><g id="Layer_2" data-name="Layer 2"><g id="アタリ"><g class="cls-1"><rect class="cls-2" width="4571.5" height="512"/></g></g><g id="アイコン"><polygon class="cls-3" points="971.8 233.63 836.38 233.63 836.38 192.21 946.43 192.21 946.43 146.34 836.38 146.34 836.38 78.64 727.22 78.64 727.22 130.3 783.84 130.3 783.84 146.34 631.05 146.34 631.05 192.21 783.84 192.21 783.84 233.63 594.52 233.63 594.52 280.86 738.85 280.86 738.85 445.69 796.74 445.69 796.74 280.86 831.04 280.86 831.04 445.69 881.83 445.69 881.83 280.86 971.8 280.86 971.8 233.63"/><polygon class="cls-3" points="664.01 302.68 570.86 445.68 628.77 445.68 721.89 302.68 664.01 302.68"/><polygon class="cls-3" points="938.4 300.9 885.39 300.9 952.13 444.79 1005.14 444.79 938.4 300.9"/><polygon class="cls-3" points="1196.32 308.93 1153.1 236.29 1174.05 236.29 1174.05 187.75 1145.09 187.75 1145.09 78.63 1035.5 78.63 1035.5 129.84 1092.1 129.84 1092.1 187.75 997.22 187.75 997.22 236.29 1065.38 236.29 984.74 365.04 1038.64 365.04 1092.1 279.73 1092.1 446.14 1145.09 446.14 1145.09 308.93 1196.32 308.93"/><polygon class="cls-3" points="1391.42 226.06 1339.45 96.45 1250.22 96.45 1174.5 234.53 1228.4 234.53 1293.87 118.82 1337.52 226.06 1391.42 226.06"/><polygon class="cls-3" points="1350.45 304.48 1293.43 304.48 1350.01 393.56 1233.68 393.56 1312.59 235.43 1258.69 235.43 1166.54 413.62 1166.54 445.68 1378.51 445.68 1407 393.56 1350.45 304.48"/><polygon class="cls-3" points="1531.57 78.63 1474.04 78.63 1362.51 309.03 1415.88 309.03 1456.73 230.61 1456.73 442.8 1500.23 442.8 1500.23 141.05 1531.57 78.63"/><polygon class="cls-3" points="1699.05 392.71 1591.79 392.71 1591.79 295.52 1768.14 93.55 1697.25 93.55 1591.79 214.58 1591.79 77.09 1542.38 77.09 1542.38 403.26 1573.36 443.46 1704.49 443.46 1740.09 415.76 1755.89 339.99 1715.68 316.28 1699.05 392.71"/><polygon class="cls-3" points="2183.54 442.14 2118.69 295.99 2179.58 214.79 2118.96 214.79 2095.99 244.81 2072.47 191.74 2182.21 191.74 2182.21 146.92 2052.58 146.92 2044.12 127.81 2137.42 127.81 2137.42 74.44 1997.04 74.44 1975.33 103.45 1994.61 146.92 1786.86 146.92 1786.86 191.74 1842.07 191.74 1777.64 442.78 1824.42 442.78 1865.68 282 1924.56 282 1924.56 397.99 1972.68 397.99 1972.68 236.55 1877.35 236.55 1888.86 191.74 2014.48 191.74 2059.32 292.81 1945.64 441.46 2009.59 441.46 2082.26 344.57 2125.55 442.14 2183.54 442.14"/><polygon class="cls-3" points="2424.7 393.37 2424.7 128.48 2540.01 128.48 2540.01 74.42 2231.64 74.42 2231.64 128.48 2366.73 128.48 2366.73 393.37 2203.31 393.37 2203.31 442.15 2562.43 442.15 2562.43 393.37 2424.7 393.37"/><path class="cls-3" d="M2955.14,441.46,2873.8,359.1h55.66V316.94H2807.53V299.8h100.15V250.36H2807.53v-15.8H2930.1V189.77h-51.4V172.62h70.51V123.19h-46l42.08-48.75h-56.66l-42.08,48.75h-8.66V74.44h-46.11v48.75h-41.51V74.44h-47.46v48.75h-18.9l-31.82-48.75h-56.68l31.82,48.75H2571v49.43h105.41v17.15H2596v44.79H2748.9v15.8H2612.51V299.8H2748.9v17.14H2574.29V359.1h99.16l-72.17,82.36h69.2l72.15-82.36h6.27v83h58.63V362.07l78.41,79.39ZM2735.06,172.62h83v17.15h-83Z"/><polygon class="cls-3" points="3136.36 305.08 3078.39 196.57 3078.39 193.06 3102.09 193.06 3102.09 145.62 3078.39 145.62 3078.39 72.45 3034.89 72.45 2978.4 72.45 2978.4 127.82 3034.89 127.82 3034.89 145.62 2972.93 145.62 2972.93 193.06 3031.69 193.06 2941.95 330.13 2996 330.13 3034.89 270.31 3034.89 441.47 3078.39 441.47 3078.39 282.77 3091.54 305.08 3136.36 305.08"/><path class="cls-3" d="M3375.54,441.46,3289,278.71h67.4V229.94h-92.91V192.39h101.66L3317.09,72.47h-53.57L3292.59,145h-29.07V72.47H3164l-57.33,83,29.66,36.89h77.08v37.55H3139v48.77h50.64l-77,161.44h50.05l50.74-98.44v98.63h50.09V324.08l63.29,117.38ZM3213.43,145.61h-37.78l37.78-58.93Z"/><polygon class="cls-3" points="3541.58 349.42 3541.58 278.72 3597.63 278.72 3597.63 228.82 3384.11 228.82 3384.11 278.72 3493.49 278.72 3493.49 355.71 3433.52 363.58 3433.52 321.54 3378.83 321.54 3378.83 382.18 3397.27 418.41 3643.73 386.1 3643.73 336.03 3541.58 349.42"/><polygon class="cls-3" points="3782.76 439.49 3671.57 190.42 3766.32 190.42 3766.32 144.28 3650.97 144.28 3641.86 123.87 3739.94 123.87 3739.94 70.5 3591.03 70.5 3573.91 96.2 3595.5 144.28 3384.13 144.28 3384.13 190.42 3616.22 190.42 3728.07 439.49 3782.76 439.49"/><polygon class="cls-3" points="4113.56 247.74 4173.33 247.74 4044.36 68.51 3984.59 68.51 4046.22 154.18 3930.01 154.18 3973.87 108.24 3943.27 68.51 3830.87 68.51 3830.87 123.85 3887.1 123.85 3767.62 249.06 3839.43 249.06 3885.34 200.96 4079.87 200.96 4113.56 247.74"/><polygon class="cls-3" points="4160.99 314.95 4160.99 272.13 3785.38 272.13 3785.38 314.95 3886.85 314.95 3830.87 407.37 3853.29 438.16 4128.74 438.16 4149.82 413.14 4095.11 338.02 4034.47 338.02 4071.42 388.75 3896.71 388.75 3940.91 314.95 4160.99 314.95"/><polygon class="cls-3" points="4239.41 117.94 4239.41 66.54 4187.35 66.54 4187.35 165.36 4320.45 165.36 4320.45 117.94 4239.41 117.94"/><polygon class="cls-3" points="4384.38 322.88 4326.38 249.08 4300.3 249.08 4309.07 231.28 4341.55 231.28 4341.55 183.84 4186.71 183.84 4186.71 231.28 4244.95 231.28 4176.16 378.22 4236.78 378.22 4263.79 323.32 4263.79 439.5 4308.6 439.5 4308.6 303.89 4325.73 322.88 4384.38 322.88"/><polygon class="cls-3" points="4484.54 386.77 4484.54 229.96 4561.63 229.96 4561.63 182.49 4484.54 182.49 4484.54 65.87 4372.5 65.87 4372.5 121.22 4428.5 121.22 4428.5 182.49 4358.69 182.49 4358.69 229.96 4428.5 229.96 4428.5 386.77 4328.36 386.77 4328.36 438.85 4571.5 438.85 4571.5 386.77 4484.54 386.77"/><path class="cls-4" d="M470.78,243.25A233.71,233.71,0,0,0,297.42,57.15v45.62A189.87,189.87,0,0,1,427.5,250.9a192.84,192.84,0,0,1,2.9,33.16,189.63,189.63,0,0,1-96.13,164.71L268,259.5H206.42l-66.3,189.27A189.58,189.58,0,0,1,44,284.06a191.85,191.85,0,0,1,2.9-33.16A189.84,189.84,0,0,1,176.94,102.77V57.15A233.77,233.77,0,0,0,3.56,243.25,236.32,236.32,0,0,0,0,284.06,233.86,233.86,0,0,0,54,433.18c19.85,23.88,44,44,71.17,58.2A233.34,233.34,0,0,0,178.77,512l25.46-89.41h65.92L295.6,512a233.61,233.61,0,0,0,53.58-20.62c27.19-14.21,51.32-34.32,71.15-58.2a233.11,233.11,0,0,0,50.45-189.93M257.35,380.36H216.93l20.25-69.16,20.26,69.16Z"/><polygon class="cls-4" points="188.51 0 218.07 0 218.07 39.28 248.98 0 288.29 0 253.41 39.24 289.86 103.91 253.48 103.91 233.31 61.19 218.07 78.57 218.07 103.91 188.51 103.91 188.51 0"/></g></g></svg>