<svg xmlns="http://www.w3.org/2000/svg" width="2136.5" height="512" viewBox="0 0 2136.5 512"><defs><style>.cls-1{fill:#fff;}</style></defs><g id="Layer_2" data-name="Layer 2"><g id="アイコン"><path class="cls-1" d="M26.2948,256.5451,3.8482,258.47,0,243.7179l26.2948,1.9251h221.591l17.6379-22.1275h4.4885l24.3718,25.3333v7.6963ZM50.3464,54.5168,27.8987,56.44,24.0506,41.69l26.2958,1.9231H222.8727l16.9965-21.164h4.4886l23.41,24.3718v7.6963Zm18.9207,95.5621L46.8184,152.004,42.97,137.2516l26.2969,1.9251H201.7077l16.9956-21.1659h4.49l23.4092,24.3718v7.6963Z"/><path class="cls-1" d="M439.7011,131.48l-22.7679,1.9231-3.528-14.75,26.2959,1.9231H664.819l14.11-16.6754h4.49l20.8447,19.8832V131.48H551.6192v26.616H653.2745l9.62-10.9021h4.49c15.7129,11.5425,19.5611,15.7119,19.5611,18.92,0,2.8846-2.2443,4.4885-12.5061,7.3751-7.6963,24.0507-18.92,44.5743-33.9922,62.5324,16.6755,13.1485,37.199,23.41,61.5708,31.4278l-1.6029,6.7328c-12.1869.3212-16.9966,4.1694-20.2034,12.1869-20.8438-11.2233-38.1615-23.41-52.2715-37.8414-16.6754,15.7139-37.8393,28.8623-64.1362,40.0857l-4.4885-6.0925c23.7294-13.1484,43.2914-27.8987,58.6841-45.2165-16.3542-19.8813-27.2584-43.6127-34.3124-68.3057h-32.068V245.643l1.2827,43.9318-3.2078,3.2078-17.637.6424,1.2828-47.782v-3.8482c-27.2584,9.6194-57.4014,17.3158-87.5464,23.0891-.9615,8.0175-2.5654,11.8637-6.0924,11.8637-3.8482,0-7.3752-4.4886-16.6754-29.1815l1.6039-2.2443a202.65,202.65,0,0,0,27.8987-.64l1.9241-.3212V131.48Zm51.63-34.6336v9.3l-3.2078,3.2058-17.9582.64,1.6039-51.309V33.9932c0-14.4311-1.2827-22.4487-4.81-32.0681L468.8825,0a277.2345,277.2345,0,0,1,27.58,14.11H627.62L637.8818,2.2443h4.49c16.9966,12.8272,19.8822,16.035,19.8822,18.6005s-1.924,4.4885-10.9031,8.9791v28.86l1.6039,44.8974-3.2078,3.2058-18.2783.64V96.8468Zm-18.6005,61.5708H533.34V131.48H472.7307Zm0,10.9022v28.22H533.34V169.32Zm0,73.1154q30.3051-3.3665,60.6092-9.62V208.4439H472.7307ZM631.4682,25.0142H491.3312V49.3859h140.137Zm0,35.2739H491.3312V85.9426h140.137ZM592.9865,168.9986A235.5441,235.5441,0,0,0,603.89,193.3724a165.6306,165.6306,0,0,0,24.0506,31.747,164.8087,164.8087,0,0,0,26.617-56.1208Z"/><path class="cls-1" d="M848.8627,110.0314c25.68-2.6679,44.69,1.0017,57.3642,7.0038,10.3381,5.0024,14.0066,12.0062,14.0066,18.3435,0,7.67-5.3357,12.6727-12.34,12.6727-4.0017,0-7.0038-1-14.0075-7.0038-12.3395-10.6713-26.3471-18.6768-47.0252-24.0124Zm240.7936-28.3485a363.9155,363.9155,0,0,1-60.031,80.0429c-28.6826,29.0149-60.6995,54.0291-99.386,78.3748-12.34,8.0034-15.3415,10.6733-18.3435,15.3405-2.6678,4.0027-5.3357,6.0041-9.6716,6.0041-5.0025,0-12.0062-4.336-19.3433-12.6727-8.3377-9.3384-14.675-19.3433-15.3415-35.019l6.3364-3.6695c9.3384,14.0076,15.3415,18.3435,21.0113,18.3435,4.336,0,9.0052-1,21.3446-8.0034a549.7025,549.7025,0,0,0,99.386-73.0391A727.8,727.8,0,0,0,1083.32,75.6808ZM873.8758,36.9923c22.6785.6684,38.02,5.3376,50.6936,12.3415,10.6723,6.0021,15.6748,12.3394,15.6748,20.3429,0,7.337-4.6692,12.6747-12.0063,12.6747-5.0024,0-8.0044-1.6682-15.6747-10.0069-11.0055-12.0062-23.6792-20.6761-42.0227-28.6816Z"/><path class="cls-1" d="M1191.5957,124.4826c12.0062,12.34,19.6764,15.3405,30.683,15.3405,3.6675,0,8.67-.3332,17.3418-1,27.0135-1.6681,52.0276-3.6695,75.3736-4.6692,26.347-1.0017,55.03-2.3346,79.7085-3.3363,8.0054-.6664,9.0051-1,15.0092-3.6675,4.0008-1.6681,6.6706-2.6678,9.3384-2.6678,3.3343,0,7.337,1.9994,17.0086,8.3367s13.3392,11.673,13.3392,15.6758c0,4.6692-2.6679,8.0035-9.0032,8.0035-6.6706,0-14.3408-1.335-20.0117-2.0014-9.3384-1-22.011-1.3329-38.3532-1.3329-14.3408,0-40.6888.3332-66.3694,1.3329-23.6792,1.0017-50.3594,3.3363-72.0372,5.6709-9.3384,1.3329-13.3412,2.3346-17.6771,5.0024-3.3343,2.0014-7.0038,3.3343-10.0049,3.3343-3.6695,0-9.0051-3.0011-14.0076-8.672-7.0037-8.3367-14.0075-19.3432-16.3421-31.0162Z"/><path class="cls-1" d="M1538.5322,245.103c24.6788-15.0073,42.0207-32.6844,54.6954-56.3637,14.674-28.0132,21.0113-59.0314,24.0124-90.7142.3332-4.3359.6664-8.3367.6664-11.673,0-6.67-.3332-10.6713-3.6675-14.674-2.67-3.3343-7.6722-6.6706-15.0092-9.6717l3.003-6.67c11.0045-1.6682,22.0111,2.0013,30.681,7.337,6.3373,3.6695,14.0076,10.0049,14.0076,14.6741a15.9794,15.9794,0,0,1-2.6678,8.3387c-2.3346,4.0027-3.0011,7.337-4.336,16.3422-4.6692,33.6841-12.0062,66.3685-30.0145,95.7166-15.3425,25.0142-36.3539,42.6893-66.0352,54.6955Zm282.8153-131.4021c-22.68,52.6941-60.3662,95.05-102.0537,125.7332-5.0025,4.0007-5.3357,5.3357-8.3387,11.673-1.9994,4.334-4.334,7.0038-8.0035,7.0038-2.6678,0-7.0038-2.67-16.3422-13.0079-10.0048-11.0066-13.3391-14.6741-13.3391-17.6751a8.814,8.814,0,0,1,3.3343-7.0038c2.3346-2.0014,3.001-3.67,3.001-9.6717V65.3407c-.3332-9.6716-1-12.6727-3.6675-15.6737-2.3346-2.6679-6.0041-4.336-12.0062-6.0041l1.9994-7.3371a61.289,61.289,0,0,1,10.34-.6664c7.337,0,16.6754,5.6689,23.6791,10.6713,6.6706,4.6692,11.673,9.3384,11.673,13.3411,0,2.3346-2.3346,5.6689-6.3373,7.67-3.6695,2.0014-4.0028,6.0041-4.336,14.6741-.6664,48.36-.6664,92.3823-.6664,134.7383,0,4.6692.3332,5.3357,1.6681,5.3357,1.3329,0,4.0007-1.3329,6.0021-2.6678,40.3546-25.3454,78.0414-64.3672,106.0565-111.0592Z"/><path class="cls-1" d="M1955.7384,23.5367a59.8255,59.8255,0,0,1,11.34-1c11.6729,0,23.0107,6.0021,30.0145,11.34,7.0038,5.3357,9.0051,9.0032,9.0051,12.0062,0,2.3346-1,4.6692-3.6675,7.3371-3.6695,3.3343-4.0027,4.0007-4.3359,9.6716-.6665,16.6754-.6665,34.3505-.6665,52.3609,30.681,3.0011,55.3619,9.3384,75.3715,18.3436,18.3436,8.3367,24.3477,17.0086,24.3477,25.3454,0,8.0054-5.3377,13.0079-11.673,13.0079-5.3376,0-9.3384-2.0014-19.3452-10.34-17.6751-14.6741-41.0211-27.0135-68.701-35.35,0,39.3529.6665,80.3741.6665,135.4048,0,12.6727-4.6692,17.0087-10.0049,17.0087-5.3376,0-8.6719-3.67-12.3414-12.0063-3.3343-7.67-5.0024-14.3408-5.0024-18.01a45.1,45.1,0,0,1,2.0013-12.6727c1.3349-5.3357,2.0014-8.3387,2.3346-17.3419,1.0017-30.0166.6665-64.7024.6665-99.0529,0-19.6785,0-40.3547-.3332-60.0332-.3333-18.6748-2.3346-22.6775-21.3446-29.0149Zm97.7178,6.0041c38.02,12.0063,51.6944,26.3471,51.6944,37.3536,0,6.3354-4.6692,12.0063-11.0066,12.0063-5.6688,0-8.67-3.3363-16.3421-14.6761A119.9,119.9,0,0,0,2048.787,35.21Zm27.6819-25.0141c39.353,8.3387,55.3619,21.3446,55.3619,33.3508,0,6.3374-4.0027,11.0066-10.6713,11.0066-4.6692,0-7.6722-2.0014-16.3422-12.6727-8.6719-10.0069-19.6784-18.3436-32.0179-25.0141Z"/><path class="cls-1" d="M84.8826,445.4649a17.6406,17.6406,0,0,0-6.504-5.0065,19.4158,19.4158,0,0,0-8.46-2.0154,20.8372,20.8372,0,0,0-5.0657.6343,15.4563,15.4563,0,0,0-4.604,1.9573,10.8132,10.8132,0,0,0-3.3955,3.4527A9.5107,9.5107,0,0,0,55.53,449.61a9.15,9.15,0,0,0,1.15,4.7193,10.47,10.47,0,0,0,3.1657,3.3383,21.4758,21.4758,0,0,0,4.893,2.4169q2.8755,1.0359,6.33,2.0717,3.9129,1.2677,8.1159,2.8786a31.5369,31.5369,0,0,1,7.7124,4.26,21.1005,21.1005,0,0,1,5.7552,6.6766,20.3457,20.3457,0,0,1,2.2452,10.0129A25.5508,25.5508,0,0,1,92.48,497.4384a23.6071,23.6071,0,0,1-6.4457,8.1159,27.4769,27.4769,0,0,1-9.44,4.8338A39.7347,39.7347,0,0,1,65.1981,512a42.77,42.77,0,0,1-15.5392-2.9348,29.9877,29.9877,0,0,1-12.4328-8.692l10.36-9.6677a20.804,20.804,0,0,0,8.0005,6.56,22.5172,22.5172,0,0,0,9.8422,2.4169,22.1633,22.1633,0,0,0,5.18-.6323,13.8053,13.8053,0,0,0,4.7766-2.13,11.9092,11.9092,0,0,0,3.4537-3.7417,10.8363,10.8363,0,0,0,1.3239-5.5826,9.0962,9.0962,0,0,0-1.4965-5.3517,13.412,13.412,0,0,0-4.0289-3.6836,29.0286,29.0286,0,0,0-5.986-2.706q-3.4537-1.15-7.2517-2.4169a71.16,71.16,0,0,1-7.3671-2.7621,24.3765,24.3765,0,0,1-6.6194-4.26,20.542,20.542,0,0,1-4.7766-6.504,22.2286,22.2286,0,0,1-1.8418-9.6114,21.0665,21.0665,0,0,1,2.59-10.7054,22.8863,22.8863,0,0,1,6.792-7.4254,30.2532,30.2532,0,0,1,9.5541-4.3741,41.71,41.71,0,0,1,10.8781-1.4393,38.7718,38.7718,0,0,1,12.6044,2.188,30.8111,30.8111,0,0,1,11.1079,6.56Z"/><path class="cls-1" d="M225.41,428.4281h12.5472l35.1093,81.5H256.49L248.8935,491.28H213.5543l-7.3671,18.6487H189.9555Zm18.4178,50.42-12.5472-33.1522-12.777,33.1522Z"/><path class="cls-1" d="M372.339,428.4281h19.2238l37.8715,61.0108h.23V428.4281h14.5044v81.5H425.7507l-38.6774-62.966h-.2309v62.966H372.339Z"/><path class="cls-1" d="M576.7326,477.2038H549.1059V465.4626h27.6267Z"/><path class="cls-1" d="M721.4154,445.4649a17.64,17.64,0,0,0-6.504-5.0065,19.4158,19.4158,0,0,0-8.46-2.0154,20.8378,20.8378,0,0,0-5.0657.6343,15.4557,15.4557,0,0,0-4.6039,1.9573,10.8111,10.8111,0,0,0-3.3955,3.4527,9.51,9.51,0,0,0-1.3239,5.1229,9.15,9.15,0,0,0,1.15,4.7193,10.4726,10.4726,0,0,0,3.1657,3.3383,21.4758,21.4758,0,0,0,4.893,2.4169q2.8757,1.0359,6.33,2.0717,3.9129,1.2677,8.1159,2.8786a31.5351,31.5351,0,0,1,7.7124,4.26,21.1005,21.1005,0,0,1,5.7552,6.6766,20.3457,20.3457,0,0,1,2.2453,10.0129,25.5521,25.5521,0,0,1-2.4179,11.4542,23.6085,23.6085,0,0,1-6.4458,8.1159,27.4773,27.4773,0,0,1-9.44,4.8338A39.7359,39.7359,0,0,1,701.7309,512a42.77,42.77,0,0,1-15.5392-2.9348,29.9883,29.9883,0,0,1-12.4328-8.692l10.36-9.6677a20.8029,20.8029,0,0,0,8,6.56,22.5172,22.5172,0,0,0,9.8423,2.4169,22.1625,22.1625,0,0,0,5.18-.6323,13.8053,13.8053,0,0,0,4.7766-2.13,11.908,11.908,0,0,0,3.4537-3.7417,10.8353,10.8353,0,0,0,1.3239-5.5826,9.0955,9.0955,0,0,0-1.4965-5.3517,13.4116,13.4116,0,0,0-4.0288-3.6836,29.032,29.032,0,0,0-5.9861-2.706q-3.4538-1.15-7.2517-2.4169a71.1688,71.1688,0,0,1-7.3671-2.7621,24.3765,24.3765,0,0,1-6.6194-4.26,20.542,20.542,0,0,1-4.7766-6.504,22.2287,22.2287,0,0,1-1.8417-9.6114,21.0665,21.0665,0,0,1,2.59-10.7054,22.8874,22.8874,0,0,1,6.792-7.4254,30.2528,30.2528,0,0,1,9.5542-4.3741,41.7088,41.7088,0,0,1,10.878-1.4393,38.7714,38.7714,0,0,1,12.6044,2.188,30.81,30.81,0,0,1,11.1079,6.56Z"/><path class="cls-1" d="M861.9428,428.4281H874.49l35.1093,81.5h-16.576l-7.597-18.6487H850.0872L842.72,509.9284H826.4883Zm18.4179,50.42-12.5472-33.1522-12.7771,33.1522Z"/><path class="cls-1" d="M1008.8608,428.4281h14.5034v81.5h-14.5034Z"/><path class="cls-1" d="M1271.5571,445.4649a17.6394,17.6394,0,0,0-6.5039-5.0065,19.4162,19.4162,0,0,0-8.46-2.0154,20.837,20.837,0,0,0-5.0656.6343,15.4552,15.4552,0,0,0-4.604,1.9573,10.8121,10.8121,0,0,0-3.3955,3.4527,9.5107,9.5107,0,0,0-1.3239,5.1229,9.1494,9.1494,0,0,0,1.15,4.7193,10.4711,10.4711,0,0,0,3.1656,3.3383,21.48,21.48,0,0,0,4.893,2.4169q2.8756,1.0359,6.33,2.0717,3.9129,1.2677,8.1158,2.8786a31.5351,31.5351,0,0,1,7.7124,4.26,21.1005,21.1005,0,0,1,5.7552,6.6766,20.3457,20.3457,0,0,1,2.2453,10.0129,25.5521,25.5521,0,0,1-2.4179,11.4542,23.6082,23.6082,0,0,1-6.4457,8.1159,27.4769,27.4769,0,0,1-9.44,4.8338A39.7359,39.7359,0,0,1,1251.8726,512a42.7709,42.7709,0,0,1-15.5392-2.9348,29.989,29.989,0,0,1-12.4328-8.692l10.36-9.6677a20.8036,20.8036,0,0,0,8,6.56,22.5172,22.5172,0,0,0,9.8423,2.4169,22.1633,22.1633,0,0,0,5.18-.6323,13.8048,13.8048,0,0,0,4.7765-2.13,11.9084,11.9084,0,0,0,3.4538-3.7417,10.8363,10.8363,0,0,0,1.3238-5.5826,9.0955,9.0955,0,0,0-1.4965-5.3517,13.41,13.41,0,0,0-4.0288-3.6836,29.0311,29.0311,0,0,0-5.986-2.706q-3.4538-1.15-7.2518-2.4169a71.1774,71.1774,0,0,1-7.3671-2.7621,24.38,24.38,0,0,1-6.6194-4.26,20.5417,20.5417,0,0,1-4.7765-6.504,22.2272,22.2272,0,0,1-1.8418-9.6114,21.0675,21.0675,0,0,1,2.5895-10.7054,22.8885,22.8885,0,0,1,6.792-7.4254,30.2538,30.2538,0,0,1,9.5542-4.3741,41.7089,41.7089,0,0,1,10.8781-1.4393,38.7723,38.7723,0,0,1,12.6044,2.188,30.8111,30.8111,0,0,1,11.1079,6.56Z"/><path class="cls-1" d="M1384.4819,428.4281h14.5034v32.9233h38.1023V428.4281h14.5054v81.5h-14.5054V473.7832h-38.1023v36.1452h-14.5034Z"/><path class="cls-1" d="M1557.493,428.4281h14.5034v81.5H1557.493Z"/><path class="cls-1" d="M1677.9706,428.4281h53.9868v12.6627H1692.474v20.72h37.4118v12.203H1692.474v23.0208h41.555v12.8935h-56.0584Z"/><path class="cls-1" d="M1837.1226,428.4281h14.5034v68.6068h34.65v12.8935h-49.153Z"/><path class="cls-1" d="M1986.0189,428.4281h28.8924a64.06,64.06,0,0,1,16.0009,2.0737,41.4607,41.4607,0,0,1,14.5034,6.8492,35.8675,35.8675,0,0,1,10.4766,12.5462q4.0259,7.7717,4.0288,19.281,0,10.7075-4.0288,18.4179a37.7008,37.7008,0,0,1-10.4766,12.6626,43.7762,43.7762,0,0,1-14.5034,7.309,56.69,56.69,0,0,1-16.0009,2.3607h-28.8924Zm26.59,68.8376a49.1976,49.1976,0,0,0,11.2815-1.3229,29.3761,29.3761,0,0,0,10.1876-4.49,23.8637,23.8637,0,0,0,7.4253-8.5756q2.8756-5.408,2.8766-13.6985,0-8.7471-2.8766-14.2725a23.1516,23.1516,0,0,0-7.4253-8.6338,27.6925,27.6925,0,0,0-10.1876-4.26,56.34,56.34,0,0,0-11.2815-1.15h-12.0865v56.4038Z"/></g></g></svg>